# xmcd CD database file
#
# Track frame offsets:
#	150
#	22338
#	42925
#
# Disc length: 866 seconds
#
# Revision: 0
# Processed by: cddbd v1.5.1PL0 Copyright (c) Steve Scherf et al.
# Submitted via: CDex 1.51
#
DISCID=22036003
DTITLE=アンビエンス - アンビエンス - 最後の約束
DYEAR=1900
DGENRE=J-POP
TTITLE0=最後の約束
TTITLE1=One And Only Memory
TTITLE2=最後の約束（カラオケ）
EXTD=
EXTT0=
EXTT1=
EXTT2=
PLAYORDER=
